<svg width="500" height="500" viewBox="0 0 500 500" fill="none" xmlns="http://www.w3.org/2000/svg">
<rect width="500" height="500" rx="30" fill="#163B66"/>
<path fill-rule="evenodd" clip-rule="evenodd" d="M273.032 46.5617C277.888 51.0486 281.316 55.5185 283.869 60.6944C287.251 67.548 287.604 69.2384 287.604 78.5545C287.604 90.2612 285.123 97.3578 278.688 104.053C270.118 112.97 261.202 115.885 242.835 115.776C227.611 115.686 212.654 112.921 192.744 106.517C181.957 103.047 168.327 99.6789 165.076 99.6789C164.861 99.6789 165.566 101.348 166.643 103.386C173.186 115.768 163.98 132.485 146.026 140.822C130.523 148.023 116.714 149.841 77.442 149.855L54.3419 149.862C51.5169 149.863 49.3425 152.357 49.7269 155.156C50.1269 158.066 50.4538 164.225 50.4538 168.843C50.4538 173.478 54.2129 177.235 58.8483 177.232L70.1687 177.226C97.3135 177.211 126.044 175.375 142.837 172.58C169.677 168.115 184.385 163.296 223.602 146.122C262.044 129.285 290.34 125.854 318.247 134.644C323.394 136.266 334.805 140.688 343.606 144.472C382.082 161.015 385.468 161.861 412.751 161.763C424.38 161.722 435.066 161.192 436.497 160.586C439.092 159.488 439.08 159.446 432.213 145.835C417.848 117.363 397.775 94.6022 369.892 75.1659C341.472 55.3554 306.617 42.2059 278.481 40.6809L275.585 40.5238C272.326 40.347 270.635 44.3467 273.032 46.5617ZM257.317 144.055C247.629 146.213 243.74 147.713 205.84 163.909C174.264 177.403 155.687 183.355 136.171 186.231C123.662 188.074 91.6768 189.76 68.9858 189.772L60.9262 189.777C54.5193 189.78 49.3782 195.07 49.5566 201.474L49.6593 205.16C49.785 209.671 53.3741 213.319 57.8826 213.517C69.7641 214.041 106.375 211.8 120.715 209.671C143.276 206.322 159.053 200.79 196.173 183.212C237.59 163.597 246.672 160.74 267.603 160.74C288.435 160.74 291.724 161.815 340.353 184.511C370.445 198.554 388.812 202.789 408.465 200.215C426.123 197.902 447.038 190.678 447.038 186.892C447.038 185.953 446.172 182.08 445.114 178.282C443.42 172.203 442.908 171.46 440.828 172.072C429.087 175.521 421.639 176.288 405.322 175.734C383.988 175.009 376.986 173.188 340.617 158.912C326.021 153.183 309.151 147.218 303.127 145.656C288.035 141.745 270.448 141.13 257.317 144.055ZM236.745 181.197C222.396 183.572 211.648 187.474 184.251 200.255C170.693 206.581 155.228 213.431 149.885 215.477C129.745 223.189 109.109 226.836 75.026 228.702C62.4541 229.39 51.5589 230.124 50.8161 230.334C49.8377 230.609 49.5212 235.55 49.6732 248.172L49.7522 254.768C49.8236 260.73 54.781 265.468 60.7398 265.271C100.362 263.958 128.289 255.819 162.633 235.575C200.149 213.46 226.284 206.803 255.308 211.967C270.457 214.663 281.954 219.27 315.351 236.03C353.665 255.256 365.229 259.535 380.75 260.227C388.212 260.56 394.044 260.143 399.401 258.893C413.915 255.504 432.619 245.239 445.804 233.425L446.522 232.782C449.996 229.669 451.921 225.182 451.783 220.519C451.663 216.474 451.272 211.065 450.913 208.499C450.594 206.211 448.119 204.916 446.057 205.958L436.337 210.87C416.966 220.661 406.741 223.356 389.321 223.262C370.01 223.16 361.812 220.511 326.462 202.962C310.748 195.16 294.618 187.701 290.62 186.386C272.577 180.454 252.77 178.547 236.745 181.197ZM192.744 238.725C182.625 241.27 173.682 245.092 158.805 253.233C152.328 256.778 140.94 262.994 133.499 267.048C117.35 275.845 105.903 280.178 90.8002 283.212C81.7062 285.038 58.198 287.85 51.8824 287.869C47.6331 287.88 53.7007 336.043 58.1671 337.753C59.9203 338.424 77.0043 332.548 88.7601 327.229C93.1717 325.233 104.229 319 113.332 313.377C152.328 289.291 168.097 283.31 192.609 283.31C214.603 283.31 228.702 287.863 267.943 307.639C304.758 326.193 322.13 331.184 349.892 331.184C374.308 331.184 393.117 326.22 414.102 314.237C425.421 307.775 439.098 296.294 441.643 291.119C444.035 286.255 448.636 268.646 450.166 258.502C450.758 254.582 451.195 251.377 451.139 251.382C451.083 251.387 447.438 254.797 443.037 258.96C433.61 267.879 416.249 279.566 406.169 283.78C391.734 289.812 375.146 292.081 359.574 290.15C342.766 288.065 330.7 283.317 303.854 268.222C266.171 247.034 256.778 242.651 240.745 238.774C228.593 235.835 204.341 235.811 192.744 238.725ZM150.183 326.1C145.002 326.909 136.259 328.865 130.753 330.448C116.044 334.676 65.9331 354.692 65.5777 356.482C65.0554 359.109 74.5928 372.468 83.0056 380.892C99.0587 396.965 119.658 408.175 152.171 418.533C190.284 430.675 203.073 435.152 212.173 439.541C221.933 444.247 230.091 450.517 233.294 455.772C234.22 457.292 236.402 457.357 237.417 455.896L238.486 454.357C246.062 443.446 264.082 433.495 297.89 421.551C308.576 417.775 319.891 413.668 323.034 412.423C357.967 398.584 389.329 375.381 411.152 347.229C415.751 341.297 419.351 336.28 419.152 336.081C418.953 335.883 415.483 337.725 411.441 340.176C376.673 361.256 333.695 372.644 302.687 368.995C287.625 367.222 273.162 361.916 240.174 346.061C224.773 338.66 208.573 331.323 204.173 329.758C189.008 324.362 169.709 323.055 150.183 326.1Z" fill="#F7F7FD"/>
</svg>
